<svg xmlns="http://www.w3.org/2000/svg" version="1.1" xmlns:xlink="http://www.w3.org/1999/xlink" width="1000" height="1000"><metadata><rdf:RDF xmlns:rdf="http://www.w3.org/1999/02/22-rdf-syntax-ns#" xmlns:dc="http://purl.org/dc/elements/1.1/"><rdf:Description><dc:creator>RealFaviconGenerator</dc:creator><dc:source>https://realfavicongenerator.net</dc:source></rdf:Description></rdf:RDF></metadata><metadata><rdf:rdf xmlns:rdf="http://www.w3.org/1999/02/22-rdf-syntax-ns#" xmlns:dc="http://purl.org/dc/elements/1.1/"><rdf:description><dc:creator>RealFaviconGenerator</dc:creator><dc:source>https://realfavicongenerator.net</dc:source></rdf:description></rdf:rdf></metadata><style>
    #light-icon {
      display: inline;
    }
    #dark-icon {
      display: none;
    }

    @media (prefers-color-scheme: dark) {
      #light-icon {
        display: none;
      }
      #dark-icon {
        display: inline;
      }
    }
  </style><g id="light-icon"><svg xmlns="http://www.w3.org/2000/svg" version="1.1" xmlns:xlink="http://www.w3.org/1999/xlink" width="1000" height="1000"><g><g transform="matrix(5.6628989512311145,0,0,5.6628989512311145,179.89047953428314,0)"><svg xmlns="http://www.w3.org/2000/svg" viewBox="98.394 43.919 113.055 176.588" shape-rendering="geometricPrecision" width="113.055" height="176.588"><path fill="#787750" d="M204.26753,50.73361c2.45168,-0.03521 2.87081,1.3452 3.15617,3.47195c0.67363,5.01837 0.31418,10.59581 0.11067,15.6279c-0.25061,5.81113 -0.46509,11.62386 -0.64345,17.43773c-0.53163,16.86014 -0.75777,33.71159 -1.78422,50.54588c-0.57713,9.45732 -0.98095,18.65351 -2.48826,28.04817c-0.45069,2.80884 -3.29771,10.48788 -6.66242,11.34329c-1.50983,0.38369 -2.31402,-1.93079 -2.34398,-3.30892c-0.1141,-5.27309 0.18636,-10.5503 0.52523,-15.82569c0.31578,-5.18346 0.59634,-10.36875 0.84192,-15.5561c0.83255,-17.36113 1.4234,-34.733 1.77256,-52.11037c0.09741,-5.16151 0.5561,-17.06479 0.05351,-21.60434c-2.55274,2.31448 -5.75076,6.04527 -8.13819,8.66822c-2.99337,3.26364 -6.02973,6.4875 -9.10793,9.67111c-17.44527,18.38849 -18.10084,18.74428 -19.60518,43.97401c-0.31372,5.80495 -0.72668,11.60419 -1.23819,17.39497c-0.54352,6.47675 -0.71822,14.56646 -5.66204,19.4904c-1.35617,1.12111 -2.98857,0.56799 -3.08643,-1.31364c-0.35488,-6.8218 0.43697,-14.38171 0.80899,-21.19779c0.80008,-14.9609 1.49383,-29.92752 2.08102,-44.89825c0.28765,-5.7048 0.47607,-11.41418 0.56456,-17.12561c0.01692,-1.71928 0.32744,-7.13872 -0.57599,-8.30579c-0.82934,0.01669 -0.7109,0.1253 -1.52012,0.68872c-1.84619,1.54619 -4.76684,4.60838 -6.56502,6.41387l-11.71235,11.86738c-4.58209,4.67332 -9.82386,9.69649 -13.61662,14.9721c-3.87645,5.39177 -4.35846,14.22096 -4.93239,20.72721l-1.47256,17.58659c-0.68438,7.48674 -0.16166,23.05198 -6.48841,28.77256c-0.77309,0.69901 -2.61723,-0.65899 -2.76265,-1.49291c-0.8689,-4.98567 -0.20488,-10.77851 0.07637,-15.88034c0.70495,-13.78102 1.74489,-27.54284 3.11913,-41.27332c0.87942,-8.9497 1.93559,-17.98102 3.30457,-26.86852c0.63498,-3.49596 1.3596,-7.29444 2.78963,-10.56471c0.99992,-2.28704 4.02233,-8.97851 7.29238,-7.55328c3.15412,3.06082 -2.30945,21.72645 -0.45252,23.24017c1.22881,-0.62287 5.85389,-5.92088 7.10282,-7.28758c6.27165,-6.85633 12.58377,-13.67584 18.93567,-20.45785c3.11181,-3.35328 9.72439,-11.14665 13.25396,-13.02965c0.78659,0.50534 1.77965,1.1625 2.18918,2.0154c2.53079,5.27058 -0.72805,33.76098 1.4936,36.80213c3.05328,-0.51768 34.93445,-39.16029 41.38697,-43.10511z"></path><path fill="#787750" d="M135.16509,124.48216c1.61982,-0.07134 5.53239,-0.43148 6.68598,0.85884c3.93201,4.3987 -3.71593,5.49741 -4.11494,9.60252c-0.28354,2.91448 -0.51265,5.69108 -0.75366,8.5093l-1.56814,18.30069l-2.19512,25.92759c-0.30412,3.93018 -0.91944,10.07264 -0.7923,13.77027c2.33598,-1.39162 5.29002,-4.17622 7.38293,-6.06037l10.41357,-9.40518c5.43864,-4.82973 11.31059,-9.42256 16.58963,-14.1487c1.27454,-7.3939 1.46502,-15.73742 2.43956,-23.35107c1.11037,-8.67599 1.5782,-20.80793 13.40008,-21.15823c0.99809,-0.0295 2.67508,0.83117 2.61334,2.28773c-1.72226,3.51951 -4.6843,5.64741 -5.27104,9.83346c-1.58255,11.28704 -2.37599,22.69116 -3.3862,34.04794l-1.79726,21.99809c-0.66745,7.4872 -0.79367,15.67431 -5.1359,22.07149c-1.20137,2.56715 -5.32912,2.76357 -5.59642,-0.43331c-0.83529,-9.9814 1.90061,-21.03384 1.29489,-30.91715c-2.17866,1.19771 -5.483,4.15244 -7.54596,5.89207c-6.22934,5.23102 -12.36357,10.57454 -18.39924,16.02805c-2.47752,2.22485 -11.32409,10.80274 -14.01517,11.55777c-1.94451,-0.35419 -2.57973,-2.11921 -2.63369,-3.91966c-0.20419,-6.78841 0.28765,-13.5997 0.68826,-20.3737c0.75137,-13.28323 1.72614,-26.55252 2.92363,-39.80282c0.51745,-5.89848 1.06738,-11.79398 1.64954,-17.68651c0.28674,-2.94627 0.47149,-6.0375 0.96425,-8.94329c0.64573,-3.80922 2.95953,-4.25716 6.15938,-4.48582z"></path></svg></g></g></svg></g><g id="dark-icon"><svg xmlns="http://www.w3.org/2000/svg" version="1.1" xmlns:xlink="http://www.w3.org/1999/xlink" width="1000" height="1000"><g clip-path="url(#SvgjsClipPath1471)"><rect width="1000" height="1000" fill="#faf8f1"></rect><g transform="matrix(5.096609056108003,0,0,5.096609056108003,211.90143158085485,50.00000000000006)"><svg xmlns="http://www.w3.org/2000/svg" viewBox="98.394 43.919 113.055 176.588" shape-rendering="geometricPrecision" width="113.055" height="176.588"><path fill="#787750" d="M204.26753,50.73361c2.45168,-0.03521 2.87081,1.3452 3.15617,3.47195c0.67363,5.01837 0.31418,10.59581 0.11067,15.6279c-0.25061,5.81113 -0.46509,11.62386 -0.64345,17.43773c-0.53163,16.86014 -0.75777,33.71159 -1.78422,50.54588c-0.57713,9.45732 -0.98095,18.65351 -2.48826,28.04817c-0.45069,2.80884 -3.29771,10.48788 -6.66242,11.34329c-1.50983,0.38369 -2.31402,-1.93079 -2.34398,-3.30892c-0.1141,-5.27309 0.18636,-10.5503 0.52523,-15.82569c0.31578,-5.18346 0.59634,-10.36875 0.84192,-15.5561c0.83255,-17.36113 1.4234,-34.733 1.77256,-52.11037c0.09741,-5.16151 0.5561,-17.06479 0.05351,-21.60434c-2.55274,2.31448 -5.75076,6.04527 -8.13819,8.66822c-2.99337,3.26364 -6.02973,6.4875 -9.10793,9.67111c-17.44527,18.38849 -18.10084,18.74428 -19.60518,43.97401c-0.31372,5.80495 -0.72668,11.60419 -1.23819,17.39497c-0.54352,6.47675 -0.71822,14.56646 -5.66204,19.4904c-1.35617,1.12111 -2.98857,0.56799 -3.08643,-1.31364c-0.35488,-6.8218 0.43697,-14.38171 0.80899,-21.19779c0.80008,-14.9609 1.49383,-29.92752 2.08102,-44.89825c0.28765,-5.7048 0.47607,-11.41418 0.56456,-17.12561c0.01692,-1.71928 0.32744,-7.13872 -0.57599,-8.30579c-0.82934,0.01669 -0.7109,0.1253 -1.52012,0.68872c-1.84619,1.54619 -4.76684,4.60838 -6.56502,6.41387l-11.71235,11.86738c-4.58209,4.67332 -9.82386,9.69649 -13.61662,14.9721c-3.87645,5.39177 -4.35846,14.22096 -4.93239,20.72721l-1.47256,17.58659c-0.68438,7.48674 -0.16166,23.05198 -6.48841,28.77256c-0.77309,0.69901 -2.61723,-0.65899 -2.76265,-1.49291c-0.8689,-4.98567 -0.20488,-10.77851 0.07637,-15.88034c0.70495,-13.78102 1.74489,-27.54284 3.11913,-41.27332c0.87942,-8.9497 1.93559,-17.98102 3.30457,-26.86852c0.63498,-3.49596 1.3596,-7.29444 2.78963,-10.56471c0.99992,-2.28704 4.02233,-8.97851 7.29238,-7.55328c3.15412,3.06082 -2.30945,21.72645 -0.45252,23.24017c1.22881,-0.62287 5.85389,-5.92088 7.10282,-7.28758c6.27165,-6.85633 12.58377,-13.67584 18.93567,-20.45785c3.11181,-3.35328 9.72439,-11.14665 13.25396,-13.02965c0.78659,0.50534 1.77965,1.1625 2.18918,2.0154c2.53079,5.27058 -0.72805,33.76098 1.4936,36.80213c3.05328,-0.51768 34.93445,-39.16029 41.38697,-43.10511z"></path><path fill="#787750" d="M135.16509,124.48216c1.61982,-0.07134 5.53239,-0.43148 6.68598,0.85884c3.93201,4.3987 -3.71593,5.49741 -4.11494,9.60252c-0.28354,2.91448 -0.51265,5.69108 -0.75366,8.5093l-1.56814,18.30069l-2.19512,25.92759c-0.30412,3.93018 -0.91944,10.07264 -0.7923,13.77027c2.33598,-1.39162 5.29002,-4.17622 7.38293,-6.06037l10.41357,-9.40518c5.43864,-4.82973 11.31059,-9.42256 16.58963,-14.1487c1.27454,-7.3939 1.46502,-15.73742 2.43956,-23.35107c1.11037,-8.67599 1.5782,-20.80793 13.40008,-21.15823c0.99809,-0.0295 2.67508,0.83117 2.61334,2.28773c-1.72226,3.51951 -4.6843,5.64741 -5.27104,9.83346c-1.58255,11.28704 -2.37599,22.69116 -3.3862,34.04794l-1.79726,21.99809c-0.66745,7.4872 -0.79367,15.67431 -5.1359,22.07149c-1.20137,2.56715 -5.32912,2.76357 -5.59642,-0.43331c-0.83529,-9.9814 1.90061,-21.03384 1.29489,-30.91715c-2.17866,1.19771 -5.483,4.15244 -7.54596,5.89207c-6.22934,5.23102 -12.36357,10.57454 -18.39924,16.02805c-2.47752,2.22485 -11.32409,10.80274 -14.01517,11.55777c-1.94451,-0.35419 -2.57973,-2.11921 -2.63369,-3.91966c-0.20419,-6.78841 0.28765,-13.5997 0.68826,-20.3737c0.75137,-13.28323 1.72614,-26.55252 2.92363,-39.80282c0.51745,-5.89848 1.06738,-11.79398 1.64954,-17.68651c0.28674,-2.94627 0.47149,-6.0375 0.96425,-8.94329c0.64573,-3.80922 2.95953,-4.25716 6.15938,-4.48582z"></path></svg></g></g><defs><clipPath id="SvgjsClipPath1471"><rect width="1000" height="1000" x="0" y="0" rx="150" ry="150"></rect></clipPath></defs></svg></g></svg>