<svg version="1.1" viewBox="0 0 300 247.866" xmlns="http://www.w3.org/2000/svg">
  <defs>
    <clipPath id="clip-1"><rect x="0" y="0" transform="scale(0.22866,0.22866)" width="1312" height="1084" fill="none"/></clipPath>
    <linearGradient x1="69.44177" y1="194.63712" x2="35.14139" y2="191.54794" gradientUnits="userSpaceOnUse" id="color-1"><stop offset="0" stop-color="#c4bfa5"/><stop offset="1" stop-color="#e3e2d5"/></linearGradient>
    <linearGradient x1="55.65983" y1="192.46486" x2="64.3859" y2="187.56563" gradientUnits="userSpaceOnUse" id="color-2"><stop offset="0" stop-color="#878f66"/><stop offset="1" stop-color="#c0b197"/></linearGradient>
    <linearGradient x1="53.18598" y1="191.8388" x2="35.32248" y2="193.22081" gradientUnits="userSpaceOnUse" id="color-3"><stop offset="0" stop-color="#a6a580"/><stop offset="1" stop-color="#d3ccbc"/></linearGradient>
    <linearGradient x1="84.54306" y1="160.23018" x2="76.14101" y2="155.86189" gradientUnits="userSpaceOnUse" id="color-4"><stop offset="0" stop-color="#a7a68a"/><stop offset="1" stop-color="#cac8b0"/></linearGradient>
    <linearGradient x1="67.99436" y1="179.79512" x2="62.41692" y2="181.91387" gradientUnits="userSpaceOnUse" id="color-5"><stop offset="0" stop-color="#8b8266"/><stop offset="1" stop-color="#bab281"/></linearGradient>
  </defs>
  <g clip-path="url(#clip-1)" fill-rule="nonzero">
    <path d="M204.26753,50.73361c2.45168,-0.03521 2.87081,1.3452 3.15617,3.47195c0.67363,5.01837 0.31418,10.59581 0.11067,15.6279c-0.25061,5.81113 -0.46509,11.62386 -0.64345,17.43773c-0.53163,16.86014 -0.75777,33.71159 -1.78422,50.54588c-0.57713,9.45732 -0.98095,18.65351 -2.48826,28.04817c-0.45069,2.80884 -3.29771,10.48788 -6.66242,11.34329c-1.50983,0.38369 -2.31402,-1.93079 -2.34398,-3.30892c-0.1141,-5.27309 0.18636,-10.5503 0.52523,-15.82569c0.31578,-5.18346 0.59634,-10.36875 0.84192,-15.5561c0.83255,-17.36113 1.4234,-34.733 1.77256,-52.11037c0.09741,-5.16151 0.5561,-17.06479 0.05351,-21.60434c-2.55274,2.31448 -5.75076,6.04527 -8.13819,8.66822c-2.99337,3.26364 -6.02973,6.4875 -9.10793,9.67111c-17.44527,18.38849 -18.10084,18.74428 -19.60518,43.97401c-0.31372,5.80495 -0.72668,11.60419 -1.23819,17.39497c-0.54352,6.47675 -0.71822,14.56646 -5.66204,19.4904c-1.35617,1.12111 -2.98857,0.56799 -3.08643,-1.31364c-0.35488,-6.8218 0.43697,-14.38171 0.80899,-21.19779c0.80008,-14.9609 1.49383,-29.92752 2.08102,-44.89825c0.28765,-5.7048 0.47607,-11.41418 0.56456,-17.12561c0.01692,-1.71928 0.32744,-7.13872 -0.57599,-8.30579c-0.82934,0.01669 -0.7109,0.1253 -1.52012,0.68872c-1.84619,1.54619 -4.76684,4.60838 -6.56502,6.41387l-11.71235,11.86738c-4.58209,4.67332 -9.82386,9.69649 -13.61662,14.9721c-3.87645,5.39177 -4.35846,14.22096 -4.93239,20.72721l-1.47256,17.58659c-0.68438,7.48674 -0.16166,23.05198 -6.48841,28.77256c-0.77309,0.69901 -2.61723,-0.65899 -2.76265,-1.49291c-0.8689,-4.98567 -0.20488,-10.77851 0.07637,-15.88034c0.70495,-13.78102 1.74489,-27.54284 3.11913,-41.27332c0.87942,-8.9497 1.93559,-17.98102 3.30457,-26.86852c0.63498,-3.49596 1.3596,-7.29444 2.78963,-10.56471c0.99992,-2.28704 4.02233,-8.97851 7.29238,-7.55328c3.15412,3.06082 -2.30945,21.72645 -0.45252,23.24017c1.22881,-0.62287 5.85389,-5.92088 7.10282,-7.28758c6.27165,-6.85633 12.58377,-13.67584 18.93567,-20.45785c3.11181,-3.35328 9.72439,-11.14665 13.25396,-13.02965c0.78659,0.50534 1.77965,1.1625 2.18918,2.0154c2.53079,5.27058 -0.72805,33.76098 1.4936,36.80213c3.05328,-0.51768 34.93445,-39.16029 41.38697,-43.10511z" fill="#787750"/>
    <path d="M135.16509,124.48216c1.61982,-0.07134 5.53239,-0.43148 6.68598,0.85884c3.93201,4.3987 -3.71593,5.49741 -4.11494,9.60252c-0.28354,2.91448 -0.51265,5.69108 -0.75366,8.5093l-1.56814,18.30069l-2.19512,25.92759c-0.30412,3.93018 -0.91944,10.07264 -0.7923,13.77027c2.33598,-1.39162 5.29002,-4.17622 7.38293,-6.06037l10.41357,-9.40518c5.43864,-4.82973 11.31059,-9.42256 16.58963,-14.1487c1.27454,-7.3939 1.46502,-15.73742 2.43956,-23.35107c1.11037,-8.67599 1.5782,-20.80793 13.40008,-21.15823c0.99809,-0.0295 2.67508,0.83117 2.61334,2.28773c-1.72226,3.51951 -4.6843,5.64741 -5.27104,9.83346c-1.58255,11.28704 -2.37599,22.69116 -3.3862,34.04794l-1.79726,21.99809c-0.66745,7.4872 -0.79367,15.67431 -5.1359,22.07149c-1.20137,2.56715 -5.32912,2.76357 -5.59642,-0.43331c-0.83529,-9.9814 1.90061,-21.03384 1.29489,-30.91715c-2.17866,1.19771 -5.483,4.15244 -7.54596,5.89207c-6.22934,5.23102 -12.36357,10.57454 -18.39924,16.02805c-2.47752,2.22485 -11.32409,10.80274 -14.01517,11.55777c-1.94451,-0.35419 -2.57973,-2.11921 -2.63369,-3.91966c-0.20419,-6.78841 0.28765,-13.5997 0.68826,-20.3737c0.75137,-13.28323 1.72614,-26.55252 2.92363,-39.80282c0.51745,-5.89848 1.06738,-11.79398 1.64954,-17.68651c0.28674,-2.94627 0.47149,-6.0375 0.96425,-8.94329c0.64573,-3.80922 2.95953,-4.25716 6.15938,-4.48582z" fill="#787750"/>
    <path d="M58.23887,169.02462c-2.87035,-8.36364 -5.88041,-16.36258 -7.73941,-25.04451c-4.52127,-21.11707 -1.34245,-43.34223 8.09909,-62.66822c12.42713,-25.0388 34.31616,-44.09611 60.82706,-52.95846c29.44802,-10.10764 63.20899,-8.11351 90.0423,8.22416c19.25922,11.72652 31.99093,28.88277 39.19367,50.04604c10.59832,31.11494 8.46494,65.15922 -5.94055,94.70534c-11.95198,24.8218 -33.27919,43.87523 -59.28521,52.96601c-16.32691,5.53582 -31.62896,5.91768 -48.35762,2.54726c0.41136,-0.34527 0.82706,-0.57622 1.28415,-0.8529c10.48354,1.60518 21.15915,1.47942 31.60244,-0.36814c25.39985,-4.36738 48.50899,-19.66578 63.31418,-40.64337c18.41616,-25.92599 25.59146,-58.18674 19.90015,-89.47477c-4.33537,-25.10076 -16.42912,-48.7779 -37.76136,-63.35236c-22.73895,-15.53552 -49.39893,-20.077 -76.16364,-15.40107c-27.59223,4.70602 -52.20846,20.12058 -68.49078,42.88834c-15.86341,22.79657 -21.73171,51.08163 -16.24688,78.30777c0.71159,3.50305 1.6516,6.74566 2.67599,10.15427c0.71456,2.37805 3.39558,7.32873 3.68575,9.45823l0.23963,1.45061l-0.24398,0.25998z" fill="#8f8c6a"/>
    <path d="M43.47142,181.66646c2.11395,-0.05785 4.89741,0.30572 6.92835,0.92401c7.90175,2.16608 15.24558,7.63445 19.98407,14.56806c0.05511,0.11776 0.11021,0.23552 0.16532,0.35328c0.62812,0.7971 0.84535,1.14375 1.70305,1.67081l-0.50259,0.53803l0.17515,0.2362c-5.56441,2.07165 -10.77828,2.00191 -16.40488,0.23346c-6.36311,-0.73331 -18.53803,-9.66677 -21.73422,-14.94512c-0.46898,-0.54306 -0.61235,-0.67477 -0.4189,-1.31684c1.6468,-1.71265 7.77302,-2.1638 10.10465,-2.26189z" fill="url(#color-1)"/>
    <path d="M50.39977,182.59047c7.90175,2.16608 15.24558,7.63445 19.98407,14.56806c0.05511,0.11776 0.11021,0.23552 0.16532,0.35328c-0.20442,0.40015 -0.29383,0.40884 -0.69238,0.60412c-0.84855,0.01509 -1.53659,-0.46555 -2.2971,-0.87713c-2.96067,-1.59192 -8.33346,-3.71067 -10.85694,-5.57127c-1.36509,-1.00655 -4.67355,-4.69253 -6.52248,-6.2593l-0.47813,0.13308c-1.25854,-0.675 -1.36646,-1.01204 -1.74146,-2.31425c0.91784,0.15457 1.81944,0.29931 2.72858,0.50534c-0.08095,-0.43537 -0.16303,-0.71684 -0.28948,-1.14192z" fill="#d1ceba"/>
    <path d="M50.39977,182.59047c7.90175,2.16608 15.24558,7.63445 19.98407,14.56806c0.05511,0.11776 0.11021,0.23552 0.16532,0.35328c-0.20442,0.40015 -0.29383,0.40884 -0.69238,0.60412c-0.84855,0.01509 -1.53659,-0.46555 -2.2971,-0.87713c0.10884,-1.6077 -1.64405,-3.11707 -2.69085,-4.26197c-4.05823,-4.43849 -8.62317,-7.08681 -14.17957,-9.24444c-0.08095,-0.43537 -0.16303,-0.71684 -0.28948,-1.14192z" fill="url(#color-2)"/>
    <path d="M43.47142,181.66646c2.11395,-0.05785 4.89741,0.30572 6.92835,0.92401c0.12645,0.42508 0.20854,0.70655 0.28948,1.14192c-0.90915,-0.20602 -1.81075,-0.35076 -2.72858,-0.50534c0.375,1.30221 0.48293,1.63925 1.74146,2.31425c2.38582,2.05061 3.99878,3.79139 6.01921,6.19207c-2.60739,-1.30084 -13.6029,-5.49718 -16.32645,-5.7878l-0.09558,0.22523c-0.71067,-0.07934 -2.81547,-0.67934 -3.77287,-0.85998c-0.63361,-0.76441 -0.96928,-0.38826 -1.74078,-0.06563c-0.46898,-0.54306 -0.61235,-0.67477 -0.4189,-1.31684c1.6468,-1.71265 7.77302,-2.1638 10.10465,-2.26189z" fill="#d1ceba"/>
    <path d="M33.78567,185.2452c-0.46898,-0.54306 -0.61235,-0.67477 -0.4189,-1.31684c1.6468,-1.71265 7.77302,-2.1638 10.10465,-2.26189l0.42599,0.79345c-1.75564,0.18201 -7.28826,0.53666 -8.51387,1.39802l-0.07683,0.38986c0.62858,0.76349 3.06014,1.43529 4.08819,1.69779l-0.09558,0.22523c-0.71067,-0.07934 -2.81547,-0.67934 -3.77287,-0.85998c-0.63361,-0.76441 -0.96928,-0.38826 -1.74078,-0.06563z" fill="#b0ac8d"/>
    <path d="M43.47142,181.66646c2.11395,-0.05785 4.89741,0.30572 6.92835,0.92401c0.12645,0.42508 0.20854,0.70655 0.28948,1.14192c-0.90915,-0.20602 -1.81075,-0.35076 -2.72858,-0.50534c-1.28803,-0.4237 -2.67187,-0.4253 -4.06326,-0.76715z" fill="#787750"/>
    <path d="M49.70213,185.54131l0.47813,-0.13308c1.84893,1.56677 5.15739,5.25274 6.52248,6.2593c2.52348,1.86059 7.89627,3.97934 10.85694,5.57127c0.76052,0.41159 1.44855,0.89223 2.2971,0.87713c0.39855,-0.19527 0.48796,-0.20396 0.69238,-0.60412c0.62812,0.7971 0.84535,1.14375 1.70305,1.67081l-0.50259,0.53803l0.17515,0.2362c-5.56441,2.07165 -10.77828,2.00191 -16.40488,0.23346l0.58102,-0.73605c4.14146,1.49337 10.05846,0.80465 14.2484,-0.0782c-4.33582,-2.07736 -8.93689,-4.23956 -13.425,-5.95587c-1.81189,0.48155 -4.51189,1.15998 -6.33613,1.29604l-0.14291,-0.15869c0.49596,-0.49047 3.22431,-0.68803 4.62462,-1.3763l0.11159,-0.3439c-1.77393,-1.88483 -13.99916,-5.27515 -15.88216,-6.66654l0.09558,-0.22523c2.72355,0.29063 13.71905,4.48697 16.32645,5.7878c-2.02043,-2.40069 -3.63338,-4.14146 -6.01921,-6.19207z" fill="#787750"/>
    <path d="M33.78567,185.2452c0.77149,-0.32264 1.10716,-0.69878 1.74078,0.06563c0.23438,0.74703 0.72508,1.12546 1.25351,1.67287c4.62988,4.79543 12.71433,11.00008 19.32096,12.47058l-0.58102,0.73605c-6.36311,-0.73331 -18.53803,-9.66677 -21.73422,-14.94512z" fill="url(#color-3)"/>
    <path d="M76.75015,154.19588c0.77584,-2.36845 9.79733,-10.92622 10.70762,-7.87111c0.90137,3.02652 -1.60198,12.64596 -3.1141,15.78544l-0.08803,0.18041c-2.42927,4.65297 -5.42744,8.88133 -10.17508,11.42927c-1.00175,0.83186 -1.3468,4.02553 -1.4529,5.34398c-0.7093,-0.37294 -0.63407,-0.92241 -0.71456,-1.61021c0.083,-0.8721 0.48361,-2.66113 0.47607,-3.28651c-0.09741,-8.28293 -0.22409,-12.86433 4.36098,-19.97127z" fill="url(#color-4)"/>
    <path d="M85.09527,149.22325c0.32172,0.12782 0.69787,0.1907 0.76098,0.48247c0.57713,2.66273 -1.35114,9.01738 -2.30396,11.28155c-0.08049,0.19093 -0.16212,0.3814 -0.24535,0.57119c0.29291,0.20442 0.72485,0.47904 0.9487,0.73216c-2.42927,4.65297 -5.42744,8.88133 -10.17508,11.42927c-0.15983,-1.08636 -0.12736,-1.2295 0.31303,-2.21204c1.49748,-5.13819 4.10922,-10.19794 6.62744,-14.92889c1.30884,-2.45899 2.88681,-4.81761 4.07424,-7.35572z" fill="#c3c0a6"/>
    <path d="M83.30694,161.55846c0.29291,0.20442 0.72485,0.47904 0.9487,0.73216c-2.42927,4.65297 -5.42744,8.88133 -10.17508,11.42927c-0.15983,-1.08636 -0.12736,-1.2295 0.31303,-2.21204l0.35282,0.13377c2.8452,-0.69558 7.01364,-7.64748 8.56052,-10.08316z" fill="#8f8c6a"/>
    <path d="M73.18674,171.69261c0.82226,-1.6388 1.38178,-3.57828 2.19032,-5.20861c2.35816,-4.75518 5.98857,-13.41174 9.71822,-17.26075c-1.18742,2.53811 -2.7654,4.89672 -4.07424,7.35572c-2.51822,4.73095 -5.12995,9.7907 -6.62744,14.92889c-0.4404,0.98255 -0.47287,1.12569 -0.31303,2.21204c-1.00175,0.83186 -1.3468,4.02553 -1.4529,5.34398c-0.7093,-0.37294 -0.63407,-0.92241 -0.71456,-1.61021c0.083,-0.8721 0.48361,-2.66113 0.47607,-3.28651c-0.09741,-8.28293 -0.22409,-12.86433 4.36098,-19.97127c0.40015,1.2295 -2.56509,5.99634 -2.99337,8.19512c-0.6439,3.30549 -0.61098,5.97805 -0.57005,9.3016z" fill="#646145"/>
    <path d="M39.9375,156.83986c-1.36944,-2.04078 -6.42896,-10.7689 -4.72889,-12.75572c1.16684,-0.43377 2.2141,0.15869 3.30595,0.59794c4.4721,1.79954 10.92005,7.64886 12.62241,12.20145c0.9439,1.6859 2.31608,4.57866 2.49169,6.50373c0.50442,2.10229 2.83079,4.34817 4.41448,5.91357l-0.27256,1.00267c-1.02142,-1.20572 -3.49802,-4.58529 -4.83224,-4.8439c-2.07187,-0.01944 -4.48788,-1.42752 -6.28308,-2.40046c-2.60259,-1.21441 -5.14482,-3.86456 -6.71776,-6.21928z" fill="#d1ceba"/>
    <path d="M39.9375,156.83986c-1.36944,-2.04078 -6.42896,-10.7689 -4.72889,-12.75572c1.16684,-0.43377 2.2141,0.15869 3.30595,0.59794c4.4721,1.79954 10.92005,7.64886 12.62241,12.20145c-0.73742,1.55076 -0.43354,2.64787 -1.12866,3.36791c-3.28056,-3.7125 -8.41761,-9.68895 -12.16006,-13.20526c-0.26044,-0.05739 -0.48041,-0.10564 -0.65968,-0.1452c-0.45137,0.63155 -0.51311,0.54649 -0.32195,1.55236c0.50648,2.66502 2.40526,5.02523 3.27119,7.55488c-0.08026,0.33338 -0.14703,0.61052 -0.2003,0.83163z" fill="#c3c0a6"/>
    <path d="M37.18857,146.90099c0.17927,0.03956 0.39924,0.0878 0.65968,0.1452c3.74245,3.51631 8.8795,9.49276 12.16006,13.20526c0.69512,-0.72005 0.39123,-1.81715 1.12866,-3.36791c0.9439,1.6859 2.31608,4.57866 2.49169,6.50373c0.50442,2.10229 2.83079,4.34817 4.41448,5.91357l-0.27256,1.00267c-1.02142,-1.20572 -3.49802,-4.58529 -4.83224,-4.8439c-2.07187,-0.01944 -4.48788,-1.42752 -6.28308,-2.40046l0.36334,-0.42759c1.29901,-0.62218 2.0202,0.65373 3.44108,-0.54055c-4.27912,-5.1878 -8.70457,-10.25305 -13.27111,-15.19002z" fill="#787750"/>
    <path d="M51.13697,156.88354c0.9439,1.6859 2.31608,4.57866 2.49169,6.50373c-1.79268,-0.45046 -2.50358,-1.68178 -3.62035,-3.13582c0.69512,-0.72005 0.39123,-1.81715 1.12866,-3.36791z" fill="#b0ac8d"/>
    <path d="M50.45968,162.09101c0.93636,0.91944 2.04329,2.11898 2.47866,3.3686c-2.07187,-0.01944 -4.48788,-1.42752 -6.28308,-2.40046l0.36334,-0.42759c1.29901,-0.62218 2.0202,0.65373 3.44108,-0.54055z" fill="#b0ac8d"/>
    <path d="M82.21623,101.04855l0.56273,-0.10198l0.35076,0.75526c-2.02203,2.65038 -3.91098,6.67134 -5.44505,9.7093c1.70579,-0.89726 3.39924,-1.81806 5.07988,-2.76174l0.59794,0.25724l-0.19779,0.36837c-2.02317,0.95076 -3.46555,1.82035 -5.39268,2.85595c-4.37675,9.11113 -5.58819,17.53034 -7.67218,27.09238c1.34063,-1.3045 2.94581,-4.16159 4.29741,-5.80473c2.22508,-2.70434 4.48011,-4.58666 6.81265,-7.02645c0.75114,-0.61944 0.64596,-0.74063 1.44741,-0.80099c0.1468,0.85838 -0.43514,1.27683 -1.01159,1.86197c-4.20892,3.21997 -11.44825,11.15008 -11.90191,16.56059c-0.67957,8.10595 -0.8362,16.55808 0.14405,24.68026c0.37454,3.1029 1.05183,6.07043 1.39573,8.90191l0.27736,0.28605l0.35213,-0.42828c0.08049,0.6878 0.00526,1.23727 0.71456,1.61021c-0.58834,4.1737 1.64909,10.41654 2.96159,14.6003c-0.23986,0.06494 -0.33567,0.00595 -0.61143,-0.0471c-0.61623,-0.37363 -0.83369,-1.03468 -1.13826,-1.69276c-1.10122,-2.03483 -1.52675,-5.12744 -2.10183,-7.40442c-1.61845,-6.40884 -2.44253,-12.36334 -3.11822,-18.93681c-0.32973,-3.20945 -0.24101,-7.49748 -0.84581,-10.65526c-0.64139,-3.34962 -2.82736,-9.85175 -4.81212,-12.742c-0.21677,-0.31555 -2.48026,-1.87431 -2.92546,-2.18346l0.65556,-0.7548c0.96928,0.95236 1.68704,1.50526 2.74916,2.32111c-0.96585,-2.14962 -1.89558,-7.08087 -3.23941,-8.62889l0.00023,-0.53986l0.29245,-0.25015l0.57896,0.15206c0.10404,0.27233 0.17904,0.45252 0.25061,0.73651c0.90709,1.70008 2.28133,6.20968 2.95198,8.19741c1.2734,3.7077 2.59184,7.39962 3.95488,11.07508c0.41593,-8.09954 1.17142,-14.78552 2.63506,-22.76433c0.45549,-2.483 -4.19428,-13.7673 -5.46174,-16.10122c-3.28194,-0.46738 -3.66631,-0.62195 -4.47005,-3.82523c0.94482,-2.07142 1.81898,-3.12027 4.21349,-2.89002c2.96136,1.52744 3.42782,3.85198 1.06052,6.27736c2.16494,2.70572 4.52652,12.13651 5.29916,15.72988c0.90229,-5.85046 4.14032,-14.47934 6.43079,-19.92942c0.72782,-1.73209 3.23438,-5.66456 4.27843,-7.7593z" fill="#787750"/>
    <path d="M65.14733,106.73003c2.96136,1.52744 3.42782,3.85198 1.06052,6.27736l-0.28857,-0.56684l-0.78613,-0.22729c-0.50511,0.38963 -0.80351,0.33178 -1.45038,0.35808c-1.85145,-0.85953 -1.65343,-2.75831 -0.95099,-4.37607l0.36311,-0.26639c0.20854,-1.04223 1.2096,-1.03034 2.05244,-1.19886z" fill="#d1ceba"/>
    <path d="M65.14733,106.73003c2.96136,1.52744 3.42782,3.85198 1.06052,6.27736l-0.28857,-0.56684l-0.78613,-0.22729c2.73361,-2.77386 1.08316,-4.29444 -2.40137,-4.01799l0.36311,-0.26639c0.20854,-1.04223 1.2096,-1.03034 2.05244,-1.19886z" fill="#b0ac8d"/>
    <path d="M73.83956,191.92431c0.30457,0.65808 0.52203,1.31913 1.13826,1.69276c0.27576,0.05305 0.37157,0.11204 0.61143,0.0471c2.4032,4.99573 6.75206,8.86303 10.53498,12.81791c0.85633,0.8952 2.33369,2.26326 3.04642,3.16532c2.05495,1.64771 3.99695,3.66997 6.0798,5.29116c4.27226,3.32607 8.90877,6.30343 13.57614,9.03819l-0.74794,0.47584c-0.50739,-0.1109 -3.88605,-1.81898 -4.50206,-2.16151c-5.56418,-3.09421 -10.67561,-7.02553 -15.42096,-11.25457c-2.30854,-2.05747 -4.61867,-4.58117 -7.08293,-6.38963c-2.71075,-1.98979 -6.17081,-3.14794 -9.14794,-4.69002l-0.17515,-0.2362l0.50259,-0.53803c1.87477,0.7253 5.19558,1.90015 6.81974,2.86532l0.11044,-0.28994c-0.46944,-1.08224 -5.49421,-6.91738 -6.5346,-8.32523c0.36951,-0.32607 0.59588,-0.6997 0.87942,-1.10419z" fill="#787750"/>
    <path d="M73.83956,191.92431c0.30457,0.65808 0.52203,1.31913 1.13826,1.69276c0.27576,0.05305 0.37157,0.11204 0.61143,0.0471c2.4032,4.99573 6.75206,8.86303 10.53498,12.81791c0.85633,0.8952 2.33369,2.26326 3.04642,3.16532c-2.02637,-0.62767 -6.18933,-6.40175 -8.19444,-7.71974c-0.60869,-0.40015 -0.88674,0.13468 -1.63742,0.47904l-0.26684,-0.35877l0.11044,-0.28994c-0.46944,-1.08224 -5.49421,-6.91738 -6.5346,-8.32523c0.36951,-0.32607 0.59588,-0.6997 0.87942,-1.10419z" fill="#8f8c6a"/>
    <path d="M60.20145,132.93979l-0.19093,0.05831c-4.70168,1.40076 -4.84413,-6.17561 -1.25877,-7.23933c1.62393,-0.48155 3.87622,1.52721 4.26563,3.02767c0.42302,1.64977 -1.23316,3.02058 -1.69367,4.25191c-0.07157,-0.28399 -0.14657,-0.46418 -0.25061,-0.73651l-0.57896,-0.15206l-0.29245,0.25015z" fill="#c3c0a6"/>
    <path d="M58.8782,167.55823c1.60953,2.83102 3.04985,6.12165 4.61662,9.06197c2.9218,5.49421 6.27645,10.74695 10.03239,15.70838c-0.28354,0.4045 -0.50991,0.77813 -0.87942,1.10419c-2.45648,-3.24375 -5.36364,-7.76227 -7.46913,-11.26623c-2.63666,-4.38819 -4.02553,-7.8279 -7.40808,-11.86303l0.27256,-1.00267l0.19573,-0.27622l0.63498,0.24421l0.24398,-0.25998z" fill="url(#color-5)"/>
    <path d="M81.20991,126.39215c-0.52134,-0.75595 -0.50099,-0.97477 -0.59726,-1.83544c-0.59451,-5.31037 8.73224,-3.08483 6.73445,1.29078c-0.43194,0.94619 -1.3827,2.39063 -2.39977,2.62066c-1.62439,0.36357 -2.2955,-0.61235 -3.3016,-1.01502c0.57645,-0.58514 1.15838,-1.00358 1.01159,-1.86197c-0.80145,0.06037 -0.69627,0.18155 -1.44741,0.80099z" fill="#c3c0a6"/>
    <path d="M82.21623,101.04855c-2.78392,-3.00434 -1.14924,-5.94192 2.34604,-5.97073c4.13895,-0.03384 4.16913,7.50709 -1.43255,6.62401l-0.35076,-0.75526z" fill="#c3c0a6"/>
    <path d="M74.6218,101.36204c3.05968,1.37035 1.66303,3.38415 1.69276,5.74093c0.00617,0.49322 0.86822,1.41128 0.28491,2.49192l-0.22409,-0.16623c-0.13605,-0.62195 -0.37248,-1.28437 -0.57073,-1.89512c-3.54466,-2.04535 -4.18948,-2.84703 -1.18285,-6.17149z" fill="#b0ac8d"/>
    <path d="M83.75602,108.04596c0.11776,-1.12363 0.06974,-1.37104 1.14466,-1.78468c0.95305,0.12691 1.30107,0.40335 2.11989,0.90366c0.7029,2.9298 -1.43506,4.33285 -3.85587,2.11006l0.19779,-0.36837l-0.59794,-0.25724z" fill="#b0ac8d"/>
    <path d="M83.75602,108.04596c0.11776,-1.12363 0.06974,-1.37104 1.14466,-1.78468c0.95305,0.12691 1.30107,0.40335 2.11989,0.90366c-0.75503,0.64345 -2.22851,0.72485 -3.26456,0.88102z" fill="#c3c0a6"/>
    <path d="M60.03613,140.00236l-0.58194,0.00549c-1.02576,0.76944 -0.96311,0.87005 -2.15716,0.54718c-0.91418,-0.88514 -1.06578,-1.55099 -0.14268,-2.58933c1.67355,-0.75252 2.40526,0.09306 3.53735,1.28186z" fill="#c3c0a6"/>
    <path d="M123.96723,232.66692c4.34954,1.57088 7.82607,2.58384 12.39512,3.32241c-0.45709,0.27668 -0.87279,0.50762 -1.28415,0.8529c-3.94093,-1.28735 -7.44604,-2.37805 -11.4016,-3.7843z" fill="#646145"/>
    <path d="M108.8266,223.97675c1.72797,0.91189 3.60137,1.76296 5.02363,3.0782c-1.94062,-0.8298 -3.86479,-1.69756 -5.77157,-2.60236z" fill="#646145"/>
    <path d="M123.6766,233.05793c-0.68232,-0.21723 -1.21761,-0.3064 -1.71014,-0.80716c0.69832,-0.13262 1.30198,0.17378 2.00076,0.41616z" fill="#a8a4a3"/>
  </g>
</svg>
